<svg width="38" height="38" viewBox="0 0 38 38" fill="none" xmlns="http://www.w3.org/2000/svg">
<g clip-path="url(#clip0_184401_530)">
<path d="M28.4997 9.49935H25.333C25.333 6.00018 22.4988 3.16602 18.9997 3.16602C15.5005 3.16602 12.6663 6.00018 12.6663 9.49935H9.49967C7.75801 9.49935 6.33301 10.9243 6.33301 12.666V31.666C6.33301 33.4077 7.75801 34.8327 9.49967 34.8327H28.4997C30.2413 34.8327 31.6663 33.4077 31.6663 31.666V12.666C31.6663 10.9243 30.2413 9.49935 28.4997 9.49935ZM18.9997 6.33268C20.7413 6.33268 22.1663 7.75768 22.1663 9.49935H15.833C15.833 7.75768 17.258 6.33268 18.9997 6.33268ZM28.4997 31.666H9.49967V12.666H12.6663V15.8327C12.6663 16.7035 13.3788 17.416 14.2497 17.416C15.1205 17.416 15.833 16.7035 15.833 15.8327V12.666H22.1663V15.8327C22.1663 16.7035 22.8788 17.416 23.7497 17.416C24.6205 17.416 25.333 16.7035 25.333 15.8327V12.666H28.4997V31.666Z" fill="#002F52"/>
</g>
<defs>
<clipPath id="clip0_184401_530">
<rect width="38" height="38" fill="white"/>
</clipPath>
</defs>
</svg>
